<?xml version="1.0" encoding="UTF-8" standalone="no"?>
<!-- Created with Inkscape (http://www.inkscape.org/) -->

<svg
   version="1.1"
   id="svg1"
   width="163.84"
   height="163.84"
   viewBox="0 0 163.84 163.84"
   sodipodi:docname="logo.svg"
   inkscape:version="1.4 (e7c3feb1, 2024-10-09)"
   xmlns:inkscape="http://www.inkscape.org/namespaces/inkscape"
   xmlns:sodipodi="http://sodipodi.sourceforge.net/DTD/sodipodi-0.dtd"
   xmlns="http://www.w3.org/2000/svg"
   xmlns:svg="http://www.w3.org/2000/svg">
  <defs
     id="defs1" />
  <sodipodi:namedview
     id="namedview1"
     pagecolor="#ffffff"
     bordercolor="#000000"
     borderopacity="0.25"
     inkscape:showpageshadow="2"
     inkscape:pageopacity="0.0"
     inkscape:pagecheckerboard="0"
     inkscape:deskcolor="#d1d1d1"
     showgrid="false"
     inkscape:zoom="3.0296903"
     inkscape:cx="78.225818"
     inkscape:cy="76.41045"
     inkscape:window-width="1280"
     inkscape:window-height="686"
     inkscape:window-x="0"
     inkscape:window-y="25"
     inkscape:window-maximized="0"
     inkscape:current-layer="g1" />
  <g
     inkscape:groupmode="layer"
     inkscape:label="Image"
     id="g1">
    <path
       id="path3"
       style="fill:#80b3ff;stroke:none;stroke-width:18.8976;stroke-dasharray:none"
       d="M 77.828125 29.615234 C 72.288187 29.621126 67.456119 32.611525 64.820312 37.066406 A 7.7154012 7.7154012 0 0 1 65.457031 37.021484 A 7.7154012 7.7154012 0 0 1 70.310547 38.742188 C 72.079944 36.494417 74.801189 35.037898 77.876953 35.033203 C 83.144267 35.034903 87.500314 39.247486 87.609375 44.513672 L 87.613281 44.513672 L 87.613281 119.33398 L 87.617188 119.33398 C 87.783413 127.58135 94.518532 134.18151 102.76758 134.18555 C 110.95276 134.17085 117.64765 127.66011 117.89062 119.47852 C 117.89141 119.45122 117.90039 119.42594 117.90039 119.39844 L 117.90039 119.38281 C 117.90339 119.35091 117.9052 119.31901 117.9082 119.28711 L 117.90039 119.28711 L 117.90039 32.382812 C 117.90039 30.854557 116.67083 29.623047 115.14258 29.623047 C 113.61432 29.623047 112.38477 30.854557 112.38477 32.382812 L 112.38477 119.28711 C 112.27581 124.54875 107.98346 128.75955 102.7207 128.76758 C 97.453393 128.76558 93.153983 124.55329 93.044922 119.28711 L 93.042969 119.28711 L 93.042969 44.238281 L 93.041016 44.238281 C 92.753569 36.088168 85.983292 29.626333 77.828125 29.615234 z " />
    <path
       id="path3-4-1"
       style="fill:#3771c8;stroke:none;stroke-width:18.8976;stroke-dasharray:none"
       d="m 65.409103,41.935739 c -1.506114,0 -2.716797,1.212636 -2.716797,2.71875 v 74.626951 c 0,-0.90648 -0.0056,0.0426 -0.0059,0.0449 -0.10896,5.26164 -4.401306,9.47244 -9.664063,9.48047 -5.212573,-0.007 -9.483726,-4.14009 -9.662109,-9.34961 0.0026,-0.0481 0.0039,-0.0977 0.0039,-0.14648 0,-1.43228 -1.153655,-2.58399 -2.585937,-2.58399 h -0.259766 c -1.432283,0 -2.585938,1.15171 -2.585938,2.58399 0,0.005 -3e-5,0.0105 0,0.0156 l -10e-7,-0.008 c 0.141044,8.26726 6.870204,14.90385 15.138671,14.90625 8.096688,-0.0196 14.748275,-6.39945 15.105469,-14.48828 0.09488,-25.020524 0.04492,-50.056429 0.04492,-75.082031 0,-1.506114 -1.212636,-2.71875 -2.71875,-2.71875 z"
       sodipodi:nodetypes="ssscccssssccccsss" />
  </g>
</svg>
