<?xml version="1.0" encoding="UTF-8" standalone="no"?>
<!-- Created with Inkscape (http://www.inkscape.org/) -->

<svg
   version="1.1"
   id="svg339"
   width="256"
   height="256"
   viewBox="0 0 256 256"
   sodipodi:docname="bp01.svg"
   inkscape:version="1.2 (dc2aeda, 2022-05-15)"
   xmlns:inkscape="http://www.inkscape.org/namespaces/inkscape"
   xmlns:sodipodi="http://sodipodi.sourceforge.net/DTD/sodipodi-0.dtd"
   xmlns="http://www.w3.org/2000/svg"
   xmlns:svg="http://www.w3.org/2000/svg">
  <defs
     id="defs343" />
  <sodipodi:namedview
     id="namedview341"
     pagecolor="#ffffff"
     bordercolor="#000000"
     borderopacity="0.25"
     inkscape:showpageshadow="2"
     inkscape:pageopacity="0.0"
     inkscape:pagecheckerboard="0"
     inkscape:deskcolor="#d1d1d1"
     showgrid="false"
     inkscape:zoom="2.8585223"
     inkscape:cx="61.045528"
     inkscape:cy="230.5387"
     inkscape:window-width="1280"
     inkscape:window-height="800"
     inkscape:window-x="0"
     inkscape:window-y="0"
     inkscape:window-maximized="0"
     inkscape:current-layer="g345" />
  <g
     inkscape:groupmode="layer"
     inkscape:label="Image"
     id="g345">
    <path
       style="fill:#000000;fill-opacity:1;stroke:#f4f4f4;stroke-width:0.245827;stroke-opacity:1;stop-color:#000000"
       d="m 126.94759,236.07539 c -2.48933,-0.59556 -4.86055,-2.79395 -5.50108,-5.10013 -0.38481,-1.38549 -0.30429,-4.23247 0.15816,-5.59236 0.56029,-1.64759 2.71639,-3.80369 4.36398,-4.36398 2.66938,-0.90777 5.94064,-0.35056 7.85986,1.3388 1.68074,1.47945 2.41836,3.07778 2.55382,5.53379 0.1319,2.39148 -0.29998,3.93906 -1.55962,5.58877 -1.57638,2.06451 -5.15868,3.24499 -7.87512,2.59511 z"
       id="path5281" />
    <path
       style="fill:#999999;fill-opacity:1;stroke:#000000;stroke-width:0.245827;stroke-opacity:1;stop-color:#000000"
       d="M 120.45521,147.96507 V 125.4719 h 8.48103 8.48103 v 22.49317 22.49317 h -8.48103 -8.48103 z"
       id="path5628" />
    <path
       style="fill:#b3b3b3;fill-opacity:1;stroke:#000000;stroke-width:0.245827;stroke-opacity:1;stop-color:#000000"
       d="m 77.189665,177.21848 v -60.35052 h 52.115315 52.11532 v 60.35052 60.35052 h -24.385 -24.385 l 1.09289,-0.69362 c 1.5837,-1.00512 3.31848,-3.05184 3.95402,-4.66501 0.78727,-1.9983 0.78727,-5.72147 0,-7.71977 -1.73906,-4.41418 -6.73896,-6.76624 -11.65914,-5.48469 -1.79489,0.46751 -2.99169,1.23046 -4.41716,2.81593 -2.7364,3.04354 -3.16518,8.14459 -0.989,11.76604 1.06439,1.77129 1.64197,2.40124 3.00572,3.27827 l 1.09289,0.70285 H 100.9601 77.189665 Z m 62.194225,-29.25341 v -24.21396 h -10.44765 -10.44765 v 24.21396 24.21395 h 10.44765 10.44765 z"
       id="path5630" />
    <path
       style="fill:#ffffff;fill-opacity:1;stroke:#000000;stroke-width:0.245827;stroke-opacity:1;stop-color:#000000"
       d="m 74.432706,114.22532 c -0.739047,-0.78494 -2.779491,-4.11743 -4.560161,-7.44774 -3.582047,-6.69934 -6.050133,-14.798541 -6.963262,-22.850434 -0.373445,-3.293004 -0.37287,-12.410129 9.84e-4,-15.610012 0.404863,-3.465284 1.119609,-7.003412 2.109603,-10.442917 0.829895,-2.883282 3.036086,-8.619176 4.038047,-10.498557 l 0.499614,-0.937125 -0.178621,1.474962 c -0.09824,0.811229 -0.589449,3.996082 -0.522278,6.902244 0.08015,3.467762 0.448377,5.345074 1.018621,7.491007 1.979829,7.450516 7.868219,14.597257 16.937449,20.556985 6.176279,4.058665 15.292458,7.314385 25.399858,9.071222 7.97548,1.386272 25.9539,1.378044 34.01399,-0.01556 7.75817,-1.341412 13.98524,-3.270182 19.82956,-6.142009 6.15719,-3.025567 9.92126,-5.73971 14.38463,-10.372278 4.02338,-4.175889 6.58935,-8.877116 7.92308,-13.42933 0.95245,-3.250867 1.41231,-8.185185 0.68191,-12.426196 l -0.40202,-2.334282 0.91008,1.636541 c 2.84211,5.110786 4.70377,13.369572 5.41564,18.973645 0.46968,3.697489 0.40462,13.563692 -0.11429,17.330801 -1.41464,10.269896 -5.26341,20.363913 -10.80261,28.331553 l -0.98268,1.41351 H 129.06953 75.069207 Z"
       id="path7268"
       sodipodi:nodetypes="sssssscsssssssssscsssscccs" />
    <path
       style="fill:#f2f2f2;fill-opacity:1;stroke:#000000;stroke-width:0.245827;stroke-opacity:1;stop-color:#000000"
       d="M 118.24277,90.776805 C 108.0338,89.731283 96.648848,86.2952 89.780743,82.186709 84.619874,79.099483 79.421236,74.558573 76.294418,70.406663 74.426685,67.926614 72.48474,64.114636 71.792011,61.568582 70.031289,55.097224 70.974645,46.108099 73.92158,41.276169 c 7.683286,-12.59787 20.858653,-20.345268 39.91908,-23.473274 6.44296,-1.057354 21.07248,-1.243562 28.0015,-0.35641 13.4191,1.718107 25.709,6.519956 33.20995,12.975627 3.2109,2.763451 8.26482,9.227203 10.05019,12.853766 1.67579,3.404 2.36343,5.675325 2.34695,11.122214 -0.012,3.958222 -0.37238,4.865442 -0.81108,6.464445 -2.05039,7.473388 -7.49507,14.26147 -16.03426,19.990494 -2.70569,1.815272 -8.21093,4.486642 -11.82184,5.736436 -6.08293,2.10541 -13.97192,3.757922 -20.13566,4.21784 -3.94015,0.293999 -17.432,0.273832 -20.40364,-0.0305 z m 18.06828,-10.048209 c 13.03278,-0.925177 26.02741,-5.577349 33.2554,-11.90568 5.84773,-5.119873 7.99078,-10.241527 7.22394,-17.264472 -0.46908,-4.296035 -2.0888,-7.34809 -5.91786,-11.151092 -6.54102,-6.496515 -18.42126,-11.341176 -31.62727,-12.897334 -3.79438,-0.447119 -15.38218,-0.515292 -19.2817,-0.113438 -3.2564,0.335579 -8.54274,1.298467 -11.46861,2.088967 -13.476478,3.641026 -23.106071,10.351876 -26.216741,18.270411 -0.649553,1.653509 -0.751781,2.262363 -0.854096,5.086878 -0.143476,3.960857 0.197885,6.140984 1.332137,8.507769 3.383061,7.059265 11.829187,12.99253 23.55271,16.545393 4.85299,1.470719 11.40047,2.637291 16.35869,2.914645 3.30321,0.184778 10.49384,0.141535 13.6434,-0.08205 z"
       id="path5634"
       sodipodi:nodetypes="ssssssssssssssssssssssssssssss" />
    <path
       style="fill:#e6e6e6;fill-opacity:1;stroke:#000000;stroke-width:0.245827;stroke-opacity:1;stop-color:#000000"
       d="M 124.0197,78.996057 C 112.93617,78.383141 101.09386,74.804886 93.537158,69.785501 86.815469,65.320752 83.26602,59.942813 83.238878,54.182084 c -0.0113,-2.399016 0.358907,-4.13662 1.35371,-6.353726 4.009709,-8.936388 17.496582,-16.067088 34.797312,-18.397834 4.42635,-0.596315 15.19553,-0.593768 19.50233,0.0046 7.0073,0.973583 12.51014,2.408312 18.00018,4.693101 9.38889,3.907366 15.48476,9.287311 17.43023,15.383135 2.71295,8.500642 -2.59714,17.146745 -14.03309,22.849252 -9.84143,4.907402 -23.22892,7.356593 -36.26985,6.635433 z"
       id="path5705" />
  </g>
</svg>
