<?xml version="1.0" encoding="UTF-8" standalone="no"?>
<!-- Created with Inkscape (http://www.inkscape.org/) -->

<svg
   version="1.1"
   id="svg242"
   width="370.66666"
   height="381.33334"
   viewBox="0 0 370.66666 381.33334"
   sodipodi:docname="CourierNew.svg"
   inkscape:version="1.2 (dc2aeda, 2022-05-15)"
   inkscape:export-filename="CourierNew2.png"
   inkscape:export-xdpi="258.9928"
   inkscape:export-ydpi="258.9928"
   xmlns:inkscape="http://www.inkscape.org/namespaces/inkscape"
   xmlns:sodipodi="http://sodipodi.sourceforge.net/DTD/sodipodi-0.dtd"
   xmlns="http://www.w3.org/2000/svg"
   xmlns:svg="http://www.w3.org/2000/svg">
  <defs
     id="defs246" />
  <sodipodi:namedview
     id="namedview244"
     pagecolor="#ffffff"
     bordercolor="#000000"
     borderopacity="0.25"
     inkscape:showpageshadow="2"
     inkscape:pageopacity="0.0"
     inkscape:pagecheckerboard="0"
     inkscape:deskcolor="#d1d1d1"
     showgrid="false"
     inkscape:zoom="1.5743015"
     inkscape:cx="151.49576"
     inkscape:cy="97.50356"
     inkscape:window-width="2505"
     inkscape:window-height="1027"
     inkscape:window-x="55"
     inkscape:window-y="25"
     inkscape:window-maximized="0"
     inkscape:current-layer="g684" />
  <g
     inkscape:groupmode="layer"
     inkscape:label="Image"
     id="g248">
    <g
       id="g684">
      <path
         style="display:inline;fill:#55ff55;stroke-width:1.33333;fill-opacity:1"
         d="m 57.283917,324.05449 c 0,-81.85859 0.007,-184.87735 0.007,-266.73594 43.111113,0.01085 90.264623,0.01478 133.375733,0.01478 0,38.666669 0,77.33334 0,116.00001 -18.66667,0 -37.33333,0 -56,0 0,-18.22222 0,-36.44445 0,-54.66667 -7.11111,0 -14.22222,0 -21.33333,0 0,48 0,96 0,144 7.11111,0 14.22222,0 21.33333,0 0,-18.22222 0,-36.44445 0,-54.66667 18.66667,0 37.33333,0 56,0 0,38.66667 0,77.33334 0,116.00001 -38.3994,0 -107.299922,0.0545 -133.382745,0.0545 z"
         id="path690"
         sodipodi:nodetypes="ccccccccccccc" />
      <path
         style="fill:#00aa00;fill-opacity:1;stroke-width:1.33333"
         d="M 190.66666,324.00001 V 57.333334 h 46.55375 c 25.45371,84.445146 0.0158,0.03763 25.44625,84.444446 V 99.555558 57.333334 h 50.64779 c 0,67.755156 0.0312,226.747616 0.0312,266.666676 H 269.513 c -28.0172,-89.21355 -0.3478,-1.97348 -28.17971,-89.77778 v 89.77778 h -50.66667 z"
         id="path688"
         sodipodi:nodetypes="ccccccccccccc" />
      <path
         style="fill:#555555;stroke-width:1.33333;fill-opacity:1"
         d="M 20,361.33334 C 20,247.55556 20,133.77778 20,20 c 24.888888,0 49.777777,0 74.666665,0 0,12.444445 0,24.888889 0,37.333334 -12.444444,0 -24.888889,0 -37.333333,0 V 190.66667 324.00001 c 12.444444,0 24.888889,0 37.333333,0 0,12.44444 0,24.88889 0,37.33333 -24.888888,0 -49.777777,0 -74.666665,0 z m 256,0 c 0,-12.44444 0,-24.88889 0,-37.33333 12.43994,0 24.87987,0 37.31981,0 0.0135,-88.8128 -0.006,-176.92169 -0.006,-266.667068 -8.63321,0 -10.88809,3.92e-4 -21.31349,3.92e-4 H 276 C 276,44.888889 276,32.444445 276,20 c 24.88889,0 49.77777,0 74.66666,0 0,113.77778 0,227.55556 0,341.33334 -24.88889,0 -49.77777,0 -74.66666,0 z"
         id="path686"
         sodipodi:nodetypes="cccccccccccccccccccc" />
    </g>
  </g>
</svg>
