<?xml version="1.0" encoding="UTF-8" standalone="no"?>
<!-- Created with Inkscape (http://www.inkscape.org/) -->

<svg
   version="1.1"
   id="svg242"
   width="370.66666"
   height="381.33334"
   viewBox="0 0 370.66666 381.33334"
   sodipodi:docname="HardcoreLists.svg"
   inkscape:version="1.2 (dc2aeda, 2022-05-15)"
   inkscape:export-filename="HardcoreLists2.png"
   inkscape:export-xdpi="258.9928"
   inkscape:export-ydpi="258.9928"
   xmlns:inkscape="http://www.inkscape.org/namespaces/inkscape"
   xmlns:sodipodi="http://sodipodi.sourceforge.net/DTD/sodipodi-0.dtd"
   xmlns="http://www.w3.org/2000/svg"
   xmlns:svg="http://www.w3.org/2000/svg">
  <defs
     id="defs246" />
  <sodipodi:namedview
     id="namedview244"
     pagecolor="#ffffff"
     bordercolor="#000000"
     borderopacity="0.25"
     inkscape:showpageshadow="2"
     inkscape:pageopacity="0.0"
     inkscape:pagecheckerboard="0"
     inkscape:deskcolor="#d1d1d1"
     showgrid="false"
     inkscape:zoom="1.1131993"
     inkscape:cx="-197.17943"
     inkscape:cy="181.90813"
     inkscape:window-width="2505"
     inkscape:window-height="1027"
     inkscape:window-x="55"
     inkscape:window-y="25"
     inkscape:window-maximized="0"
     inkscape:current-layer="g248" />
  <g
     inkscape:groupmode="layer"
     inkscape:label="Image"
     id="g248">
    <g
       id="g360">
      <path
         style="display:inline;fill:#ff55ff;fill-opacity:1;stroke-width:1.33333"
         d="m 57.326786,324.00687 -0.0099,-266.675443 c 11.023606,0 39.045598,0.0019 53.349804,0.0019 V 164 h 26.66666 V 57.333334 h 53.33333 V 324.00001 H 137.33333 V 213.33334 h -26.66667 v 110.66667 c -15.926652,0 -37.929045,0.007 -53.339874,0.007 z"
         id="path366"
         sodipodi:nodetypes="ccccccccccccc" />
      <path
         style="fill:#aa00aa;stroke-width:1.33333;fill-opacity:1"
         d="m 190.66666,324.02691 c 0,-88.89786 0,-177.79572 0,-266.693576 16.88889,0 33.77778,0 50.66667,0 0,72.000006 0,144.000006 0,216.000006 24.01961,0 48.03923,0 72.05884,0 -0.24183,16.66667 -0.48367,33.33333 -0.72551,50 -40.66667,0.2312 -81.33333,0.46238 -122,0.69357 z"
         id="path364"
         sodipodi:nodetypes="ccccccc" />
      <path
         style="fill:#555555;stroke-width:1.33333;fill-opacity:1"
         d="M 20,361.33334 V 20 h 74.666665 v 37.333334 c -13.357143,0 -29.67317,-0.01774 -37.333333,-0.01774 l 0,266.781556 c 8.713727,0 27.894506,-0.0971 37.333333,-0.0971 v 37.33333 z m 256,0 v -37.25808 c 12.22222,-0.24731 24.44444,-0.49461 36.66666,-0.74192 C 312.89317,234.66667 313.11969,146 313.34621,57.333334 H 276 V 20 h 74.66666 v 341.33334 z"
         id="path362"
         sodipodi:nodetypes="cccccccccccccccccc" />
    </g>
  </g>
</svg>
