<?xml version="1.0" encoding="UTF-8" standalone="no"?>
<!-- Created with Inkscape (http://www.inkscape.org/) -->

<svg
   version="1.1"
   id="svg404"
   width="1322.6667"
   height="1322.6667"
   viewBox="0 0 1322.6667 1322.6667"
   sodipodi:docname="trout.svg"
   inkscape:version="1.2 (dc2aeda, 2022-05-15)"
   inkscape:export-filename="bigtrout.png"
   inkscape:export-xdpi="72.580643"
   inkscape:export-ydpi="72.580643"
   xmlns:inkscape="http://www.inkscape.org/namespaces/inkscape"
   xmlns:sodipodi="http://sodipodi.sourceforge.net/DTD/sodipodi-0.dtd"
   xmlns="http://www.w3.org/2000/svg"
   xmlns:svg="http://www.w3.org/2000/svg">
  <defs
     id="defs408" />
  <sodipodi:namedview
     id="namedview406"
     pagecolor="#ffffff"
     bordercolor="#000000"
     borderopacity="0.25"
     inkscape:showpageshadow="2"
     inkscape:pageopacity="0.0"
     inkscape:pagecheckerboard="0"
     inkscape:deskcolor="#d1d1d1"
     showgrid="false"
     inkscape:zoom="0.3315272"
     inkscape:cx="1131.1289"
     inkscape:cy="1024.0487"
     inkscape:window-width="2505"
     inkscape:window-height="1027"
     inkscape:window-x="55"
     inkscape:window-y="25"
     inkscape:window-maximized="0"
     inkscape:current-layer="g410" />
  <g
     inkscape:groupmode="layer"
     inkscape:label="Image"
     id="g410">
    <g
       id="g589">
      <path
         style="display:inline;fill:#bab5ae;stroke-width:1.33333"
         d="m 413.33334,1240 h -82.66667 v -41.3333 -41.3333 h 41.33334 41.33333 v -82.6667 -82.66667 h -41.33333 -41.33334 v 41.33337 41.3333 H 289.33334 248.00001 V 1116 1157.3334 H 206.66667 165.33334 V 992.00003 826.66669 h 41.33333 41.33334 v -82.66667 -82.66667 h 41.33333 41.33333 v -124 -124.00001 h 41.33334 41.33333 v -41.33333 -41.33334 h 82.66667 82.66667 v 41.33334 41.33333 h 41.33334 41.33333 v -41.33333 -41.33334 h 41.33333 41.33334 v -41.33333 -41.33333 h 82.66667 82.66667 V 165.33334 82.666669 h 82.66667 82.66667 V 124 165.33334 H 1116 h 41.3334 v 41.33333 41.33334 H 1198.6667 1240 v 82.66666 82.66667 h -82.6666 -82.6667 v 124.00001 124 h -41.3333 -41.33337 v 41.33333 41.33334 h -41.33334 -41.33333 v 82.66667 82.66667 h -41.33334 -41.33333 v 41.33333 41.33334 h -41.33334 -41.33333 v 41.33337 41.3333 H 702.66668 661.33335 V 1116 1157.3334 H 578.66668 496.00001 V 1198.6667 1240 Z"
         id="path621" />
      <path
         style="display:inline;fill:#b49e78;stroke-width:1.33333"
         d="m 413.33334,1240 h -82.66667 v -41.3333 -41.3333 h 41.33334 41.33333 v -82.6667 -82.66667 h -41.33333 -41.33334 v 41.33337 41.3333 H 289.33334 248.00001 V 1116 1157.3334 H 206.66667 165.33334 V 992.00003 826.66669 h 41.33333 41.33334 v -82.66667 -82.66667 h 41.33333 41.33333 v -124 -124.00001 h 41.33334 41.33333 v -41.33333 -41.33334 h 82.66667 82.66667 v 41.33334 41.33333 h 41.33334 41.33333 v -41.33333 -41.33334 h 41.33333 41.33334 v -41.33333 -41.33333 h 82.66667 82.66667 V 165.33334 82.666669 h 82.66667 82.66667 V 124 165.33334 H 1116 h 41.3334 v 41.33333 41.33334 H 1198.6667 1240 v 82.66666 82.66667 H 1116 992.00003 v 41.33334 41.33333 h 41.33337 41.3333 v 82.66667 82.66667 h -41.3333 -41.33337 v -82.66667 -82.66667 h -41.33334 -41.33333 v 82.66667 82.66667 h -41.33334 -41.33333 v 41.33333 41.33334 h 41.33333 41.33334 v 82.66667 82.66667 h -41.33334 -41.33333 v -82.66667 -82.66667 h -41.33334 -41.33333 v 82.66667 82.66667 h -41.33334 -41.33333 v 41.33333 41.33334 h 41.33333 41.33334 v 41.33337 41.3333 H 702.66668 661.33335 V 1116 1157.3334 H 620.00002 578.66668 V 1116 1074.6667 H 537.33335 496.00001 V 1157.3334 1240 Z m 206.66668,-165.3333 h 41.33333 v -41.3333 -41.33337 h -41.33333 -41.33334 v 41.33337 41.3333 z"
         id="path619" />
      <path
         style="display:inline;fill:#9c937d;stroke-width:1.33333"
         d="m 413.33334,1240 h -82.66667 v -41.3333 -41.3333 h 41.33334 41.33333 v -82.6667 -82.66667 h -41.33333 -41.33334 v 41.33337 41.3333 H 289.33334 248.00001 V 1116 1157.3334 H 206.66667 165.33334 V 992.00003 826.66669 h 41.33333 41.33334 v -82.66667 -82.66667 h 41.33333 41.33333 v -124 -124.00001 h 41.33334 41.33333 v -41.33333 -41.33334 h 82.66667 82.66667 v 41.33334 41.33333 h 41.33334 41.33333 v -41.33333 -41.33334 h 41.33333 41.33334 v -41.33333 -41.33333 h 82.66667 82.66667 V 165.33334 82.666669 h 82.66667 82.66667 V 124 165.33334 H 1116 h 41.3334 v 41.33333 41.33334 H 1198.6667 1240 v 82.66666 82.66667 H 1074.6667 909.33336 v 82.66667 82.66667 h -41.33334 -41.33333 v 82.66667 82.66667 h 41.33333 41.33334 v 82.66667 82.66667 h -41.33334 -41.33333 v -82.66667 -82.66667 h -82.66667 -82.66667 v 41.33333 41.33334 h 41.33333 41.33334 v 41.33333 41.33334 h -82.66667 -82.66667 v 41.33333 41.33334 H 537.33335 496.00001 V 1116 1240 Z m 206.66668,-82.6666 H 578.66668 V 1116 1074.6667 h 41.33334 41.33333 v -41.3333 -41.33337 h 41.33333 41.33334 v 41.33337 41.3333 H 702.66668 661.33335 V 1116 1157.3334 Z M 1033.3334,661.33335 h -41.33337 v -82.66667 -82.66667 h 41.33337 41.3333 v 82.66667 82.66667 z"
         id="path617" />
      <path
         style="display:inline;fill:#a17c6c;stroke-width:1.33333"
         d="m 413.33334,1240 h -82.66667 v -41.3333 -41.3333 h 41.33334 41.33333 v -82.6667 -82.66667 h -41.33333 -41.33334 v 41.33337 41.3333 H 289.33334 248.00001 V 1116 1157.3334 H 206.66667 165.33334 V 992.00003 826.66669 h 41.33333 41.33334 v -82.66667 -82.66667 h 41.33333 41.33333 v -124 -124.00001 h 41.33334 41.33333 v -41.33333 -41.33334 h 82.66667 82.66667 v 41.33334 41.33333 h 41.33334 41.33333 v -41.33333 -41.33334 h 41.33333 41.33334 v -41.33333 -41.33333 h 82.66667 82.66667 V 165.33334 82.666669 h 82.66667 82.66667 V 124 165.33334 H 1116 h 41.3334 v 41.33333 41.33334 H 1198.6667 1240 v 82.66666 82.66667 H 1074.6667 909.33336 v 82.66667 82.66667 h -41.33334 -41.33333 v 82.66667 82.66667 h 41.33333 41.33334 v 82.66667 82.66667 h -41.33334 -41.33333 v -82.66667 -82.66667 h -82.66667 -82.66667 v 41.33333 41.33334 h 41.33333 41.33334 v 41.33333 41.33334 h -82.66667 -82.66667 v 41.33333 41.33334 H 537.33335 496.00001 V 1116 1240 Z m 41.33334,-578.66665 h 41.33333 v -41.33333 -41.33334 h 41.33334 41.33333 v -41.33333 -41.33334 h -41.33333 -41.33334 v 41.33334 41.33333 h -41.33333 -41.33334 v 41.33334 41.33333 z m 248,-165.33334 h 41.33334 v -41.33333 -41.33334 h -41.33334 -41.33333 v 41.33334 41.33333 z M 620.00002,1157.3334 H 578.66668 V 1116 1074.6667 h 41.33334 41.33333 v -41.3333 -41.33337 h 41.33333 41.33334 v 41.33337 41.3333 H 702.66668 661.33335 V 1116 1157.3334 Z M 1033.3334,661.33335 h -41.33337 v -82.66667 -82.66667 h 41.33337 41.3333 v 82.66667 82.66667 z"
         id="path615" />
      <path
         style="display:inline;fill:#978a67;stroke-width:1.33333"
         d="m 413.33334,1240 h -82.66667 v -41.3333 -41.3333 h 41.33334 41.33333 v -82.6667 -82.66667 h -41.33333 -41.33334 v 41.33337 41.3333 H 289.33334 248.00001 V 1116 1157.3334 H 206.66667 165.33334 V 992.00003 826.66669 h 41.33333 41.33334 v -82.66667 -82.66667 h 41.33333 41.33333 v -124 -124.00001 h 41.33334 41.33333 v -41.33333 -41.33334 h 82.66667 82.66667 v 41.33334 41.33333 h 41.33334 41.33333 v -41.33333 -41.33334 h 41.33333 41.33334 v -41.33333 -41.33333 h 82.66667 82.66667 V 165.33334 82.666669 h 82.66667 82.66667 V 124 165.33334 H 1116 h 41.3334 v 41.33333 41.33334 H 1198.6667 1240 v 82.66666 82.66667 H 1074.6667 909.33336 v 82.66667 82.66667 h -41.33334 -41.33333 v 82.66667 82.66667 h 41.33333 41.33334 v 82.66667 82.66667 h -41.33334 -41.33333 v -82.66667 -82.66667 h -82.66667 -82.66667 v 41.33333 41.33334 h 41.33333 41.33334 v 41.33333 41.33334 h -82.66667 -82.66667 v 41.33333 41.33334 H 537.33335 496.00001 V 1116 1240 Z m 41.33334,-330.66664 h 41.33333 v -41.33334 -41.33333 h -41.33333 -41.33334 v 41.33333 41.33334 z m 0,-248.00001 h 41.33333 v -41.33333 -41.33334 h 41.33334 41.33333 v -41.33333 -41.33334 h -41.33333 -41.33334 v 41.33334 41.33333 h -41.33333 -41.33334 v 41.33334 41.33333 z m 248,-165.33334 h 41.33334 v -41.33333 -41.33334 h -41.33334 -41.33333 v 41.33334 41.33333 z M 620.00002,1157.3334 H 578.66668 V 1116 1074.6667 h 41.33334 41.33333 v -41.3333 -41.33337 h 41.33333 41.33334 v 41.33337 41.3333 H 702.66668 661.33335 V 1116 1157.3334 Z M 1033.3334,661.33335 h -41.33337 v -82.66667 -82.66667 h 41.33337 41.3333 v 82.66667 82.66667 z"
         id="path613" />
      <path
         style="display:inline;fill:#7a7164;stroke-width:1.33333"
         d="m 413.33334,1240 h -82.66667 v -41.3333 -41.3333 h 82.66667 82.66667 V 1198.6667 1240 Z M 206.66667,1157.3334 H 165.33334 V 992.00003 826.66669 h 41.33333 41.33334 v -82.66667 -82.66667 h 41.33333 41.33333 v -124 -124.00001 h 41.33334 41.33333 v -41.33333 -41.33334 h 82.66667 82.66667 v 41.33334 41.33333 h 41.33334 41.33333 v -41.33333 -41.33334 h 41.33333 41.33334 v -41.33333 -41.33333 h 82.66667 82.66667 V 165.33334 82.666669 h 82.66667 82.66667 V 124 165.33334 H 1116 h 41.3334 v 41.33333 41.33334 H 1198.6667 1240 v 82.66666 82.66667 H 1074.6667 909.33336 v 82.66667 82.66667 h -41.33334 -41.33333 v 41.33334 41.33333 h -41.33334 -41.33333 v 41.33333 41.33334 h -41.33334 -41.33333 v 82.66667 82.66667 h -41.33333 -41.33334 v 41.33333 41.33334 h -41.33333 -41.33334 v -82.66667 -82.66667 h -41.33333 -41.33334 v 82.66667 82.66667 h -41.33333 -41.33334 v 41.33337 41.3333 H 289.33334 248.00001 V 1116 1157.3334 Z M 454.66668,661.33335 h 41.33333 v -41.33333 -41.33334 h 41.33334 41.33333 v -41.33333 -41.33334 h -41.33333 -41.33334 v 41.33334 41.33333 h -41.33333 -41.33334 v 41.33334 41.33333 z m 248,-165.33334 h 41.33334 v -41.33333 -41.33334 h -41.33334 -41.33333 v 41.33334 41.33333 z M 620.00002,1157.3334 H 578.66668 V 1116 1074.6667 h 41.33334 41.33333 v -41.3333 -41.33337 h 41.33333 41.33334 v 41.33337 41.3333 H 702.66668 661.33335 V 1116 v 41.3334 z m 248,-248.00004 h -41.33333 v -82.66667 -82.66667 h 41.33333 41.33334 v 82.66667 82.66667 z M 1033.3334,661.33335 h -41.33337 v -82.66667 -82.66667 h 41.33337 41.3333 v 82.66667 82.66667 z"
         id="path611" />
      <path
         style="display:inline;fill:#805861;stroke-width:1.33333"
         d="m 413.33334,1240 h -82.66667 v -41.3333 -41.3333 h 82.66667 82.66667 V 1198.6667 1240 Z M 206.66667,1157.3334 H 165.33334 V 992.00003 826.66669 h 41.33333 41.33334 v -82.66667 -82.66667 h 41.33333 41.33333 v -124 -124.00001 h 41.33334 41.33333 v -41.33333 -41.33334 h 82.66667 82.66667 v 41.33334 41.33333 h -41.33333 -41.33334 v 41.33334 41.33333 h -41.33333 -41.33334 v 82.66667 82.66667 h 41.33334 41.33333 v -41.33333 -41.33334 h 41.33334 41.33333 v -41.33333 -41.33334 h 82.66667 82.66667 v -41.33333 -41.33334 h 41.33333 41.33334 v -41.33333 -41.33334 h -41.33334 -41.33333 v -41.33333 -41.33333 h 41.33333 41.33334 v 41.33333 41.33333 h 41.33333 41.33334 v -124 -124.000001 h 82.66667 82.66667 V 124 165.33334 H 1116 h 41.3334 v 41.33333 41.33334 H 1198.6667 1240 v 82.66666 82.66667 h -82.6666 -82.6667 v -41.33333 -41.33334 h -41.3333 -41.33337 v 41.33334 41.33333 h -41.33334 -41.33333 v 82.66667 82.66667 h -41.33334 -41.33333 v 41.33334 41.33333 h -41.33334 -41.33333 v 41.33333 41.33334 h -41.33334 -41.33333 v 82.66667 82.66667 h -41.33333 -41.33334 v 41.33333 41.33334 h -41.33333 -41.33334 v -82.66667 -82.66667 h -41.33333 -41.33334 v -82.66667 -82.66667 h -41.33333 -41.33334 v 124 124.00001 h 41.33334 41.33333 v 41.33333 41.33334 h -41.33333 -41.33334 v 41.33337 41.3333 H 289.33334 248.00001 V 1116 v 41.3334 z m 413.33335,0 H 578.66668 V 1116 1074.6667 h 41.33334 41.33333 v -41.3333 -41.33337 h 41.33333 41.33334 v 41.33337 41.3333 H 702.66668 661.33335 V 1116 v 41.3334 z m 248,-248.00004 h -41.33333 v -82.66667 -82.66667 h 41.33333 41.33334 v 82.66667 82.66667 z M 1033.3334,661.33335 h -41.33337 v -82.66667 -82.66667 h 41.33337 41.3333 v 82.66667 82.66667 z"
         id="path609" />
      <path
         style="display:inline;fill:#72684d;stroke-width:1.33333"
         d="m 413.33334,1240 h -82.66667 v -41.3333 -41.3333 h 82.66667 82.66667 V 1198.6667 1240 Z M 206.66667,1157.3334 H 165.33334 V 992.00003 826.66669 h 41.33333 41.33334 v -82.66667 -82.66667 h 41.33333 41.33333 v -124 -124.00001 h 41.33334 41.33333 v -41.33333 -41.33334 h 82.66667 82.66667 v 41.33334 41.33333 h -41.33333 -41.33334 v 41.33334 41.33333 h -41.33333 -41.33334 v 82.66667 82.66667 h 41.33334 41.33333 v -41.33333 -41.33334 h 41.33334 41.33333 v -41.33333 -41.33334 h 41.33334 41.33333 v 41.33334 41.33333 h 41.33333 41.33334 v -41.33333 -41.33334 h 41.33333 41.33334 v -82.66667 -82.66667 h -41.33334 -41.33333 v -41.33333 -41.33333 h 41.33333 41.33334 v 41.33333 41.33333 h 41.33333 41.33334 v -124 -124.000001 h 82.66667 82.66667 V 124 165.33334 H 1116 h 41.3334 v 41.33333 41.33334 H 1198.6667 1240 v 82.66666 82.66667 h -82.6666 -82.6667 v -41.33333 -41.33334 h -41.3333 -41.33337 v 41.33334 41.33333 h -41.33334 -41.33333 v 41.33334 41.33333 h -41.33334 -41.33333 v 41.33334 41.33333 h -41.33334 -41.33333 v 41.33334 41.33333 h -41.33334 -41.33333 v 124 124.00001 h -41.33333 -41.33334 v 41.33333 41.33334 h -41.33333 -41.33334 v -41.33334 -41.33333 h 41.33334 41.33333 v -41.33334 -41.33333 h -41.33333 -41.33334 v -41.33334 -41.33333 h -41.33333 -41.33334 v -41.33334 -41.33333 h -41.33333 -41.33334 v 124 124.00001 h 41.33334 41.33333 v 41.33333 41.33334 h -41.33333 -41.33334 v 41.33337 41.3333 H 289.33334 248.00001 V 1116 1157.3334 Z M 620.00002,661.33335 h 41.33333 v -41.33333 -41.33334 h -41.33333 -41.33334 v 41.33334 41.33333 z m 0,496.00005 H 578.66668 V 1116 1074.6667 h 41.33334 41.33333 v -41.3333 -41.33337 h 41.33333 41.33334 v 41.33337 41.3333 H 702.66668 661.33335 V 1116 v 41.3334 z m 248,-248.00004 h -41.33333 v -82.66667 -82.66667 h 41.33333 41.33334 v 82.66667 82.66667 z M 1033.3334,661.33335 h -41.33337 v -82.66667 -82.66667 h 41.33337 41.3333 v 82.66667 82.66667 z"
         id="path607" />
      <path
         style="display:inline;fill:#6c634c;stroke-width:1.33333"
         d="M 206.66667,1157.3334 H 165.33334 V 992.00003 826.66669 h 41.33333 41.33334 v -82.66667 -82.66667 h 41.33333 41.33333 v -124 -124.00001 h 41.33334 41.33333 v -41.33333 -41.33334 h 82.66667 82.66667 v 41.33334 41.33333 h -41.33333 -41.33334 v 41.33334 41.33333 h -41.33333 -41.33334 v 82.66667 82.66667 h 41.33334 41.33333 v -41.33333 -41.33334 h 41.33334 41.33333 v -41.33333 -41.33334 h 41.33334 41.33333 v 41.33334 41.33333 h 41.33333 41.33334 v -41.33333 -41.33334 h 41.33333 41.33334 v -82.66667 -82.66667 h -41.33334 -41.33333 v -41.33333 -41.33333 h 41.33333 41.33334 v 41.33333 41.33333 h 41.33333 41.33334 v -124 -124.000001 h 82.66667 82.66667 V 124 165.33334 H 1116 h 41.3334 v 41.33333 41.33334 H 1198.6667 1240 v 82.66666 82.66667 h -82.6666 -82.6667 v -41.33333 -41.33334 h -41.3333 -41.33337 v 41.33334 41.33333 h -41.33334 -41.33333 v 41.33334 41.33333 h -41.33334 -41.33333 v 41.33334 41.33333 h -41.33334 -41.33333 v 41.33334 41.33333 h -41.33334 -41.33333 v 124 124.00001 h -41.33333 -41.33334 v 41.33333 41.33334 h -41.33333 -41.33334 v -41.33334 -41.33333 h 41.33334 41.33333 v -41.33334 -41.33333 h -41.33333 -41.33334 v -41.33334 -41.33333 h -41.33333 -41.33334 v -41.33334 -41.33333 h -41.33333 -41.33334 v 124 124.00001 h 41.33334 41.33333 v 41.33333 41.33334 h -41.33333 -41.33334 v 41.33337 41.3333 H 289.33334 248.00001 V 1116 1157.3334 Z M 620.00002,661.33335 h 41.33333 v -41.33333 -41.33334 h -41.33333 -41.33334 v 41.33334 41.33333 z m 0,496.00005 H 578.66668 V 1116 1074.6667 h 41.33334 41.33333 v -41.3333 -41.33337 h 41.33333 41.33334 v 41.33337 41.3333 H 702.66668 661.33335 V 1116 v 41.3334 z m 248,-248.00004 h -41.33333 v -82.66667 -82.66667 h 41.33333 41.33334 v 82.66667 82.66667 z M 1033.3334,661.33335 h -41.33337 v -82.66667 -82.66667 h 41.33337 41.3333 v 82.66667 82.66667 z"
         id="path605" />
      <path
         style="display:inline;fill:#63574e;stroke-width:1.33333"
         d="M 206.66667,1157.3334 H 165.33334 V 992.00003 826.66669 h 41.33333 41.33334 v -82.66667 -82.66667 h 41.33333 41.33333 v -124 -124.00001 h 41.33334 41.33333 v -41.33333 -41.33334 h 82.66667 82.66667 v 41.33334 41.33333 h -41.33333 -41.33334 v 41.33334 41.33333 h -41.33333 -41.33334 v 82.66667 82.66667 h 41.33334 41.33333 v -41.33333 -41.33334 h 41.33334 41.33333 v -41.33333 -41.33334 h 41.33334 41.33333 v 41.33334 41.33333 h 41.33333 41.33334 v -41.33333 -41.33334 h 41.33333 41.33334 v -82.66667 -82.66667 h -41.33334 -41.33333 v -41.33333 -41.33333 h 41.33333 41.33334 v 41.33333 41.33333 h 41.33333 41.33334 v -124 -124.000001 h 82.66667 82.66667 V 124 165.33334 H 1116 h 41.3334 v 41.33333 41.33334 H 1198.6667 1240 v 82.66666 82.66667 h -82.6666 -82.6667 v -41.33333 -41.33334 h -41.3333 -41.33337 v 41.33334 41.33333 h -41.33334 -41.33333 v 41.33334 41.33333 h -41.33334 -41.33333 v 41.33334 41.33333 h -41.33334 -41.33333 v 41.33334 41.33333 h -41.33334 -41.33333 v 124 124.00001 h -41.33333 -41.33334 v -41.33334 -41.33333 h -41.33333 -41.33334 v -41.33334 -41.33333 h -41.33333 -41.33334 v -41.33334 -41.33333 h -41.33333 -41.33334 v 124 124.00001 h 41.33334 41.33333 v 41.33333 41.33334 h -41.33333 -41.33334 v 41.33337 41.3333 H 289.33334 248.00001 V 1116 1157.3334 Z M 620.00002,661.33335 h 41.33333 v -41.33333 -41.33334 h -41.33333 -41.33334 v 41.33334 41.33333 z m 0,496.00005 H 578.66668 V 1116 1074.6667 h 41.33334 41.33333 v -41.3333 -41.33337 h 41.33333 41.33334 v 41.33337 41.3333 H 702.66668 661.33335 V 1116 v 41.3334 z m 248,-248.00004 h -41.33333 v -82.66667 -82.66667 h 41.33333 41.33334 v 82.66667 82.66667 z M 1033.3334,661.33335 h -41.33337 v -82.66667 -82.66667 h 41.33337 41.3333 v 82.66667 82.66667 z"
         id="path603" />
      <path
         style="display:inline;fill:#60454a;stroke-width:1.33333"
         d="M 206.66667,1157.3334 H 165.33334 V 992.00003 826.66669 h 41.33333 41.33334 v -82.66667 -82.66667 h 41.33333 41.33333 v -124 -124.00001 h 41.33334 41.33333 v -41.33333 -41.33334 h 82.66667 82.66667 v 41.33334 41.33333 h -41.33333 -41.33334 v 41.33334 41.33333 h -41.33333 -41.33334 v 82.66667 82.66667 h 41.33334 41.33333 v -41.33333 -41.33334 h 41.33334 41.33333 v -41.33333 -41.33334 h 41.33334 41.33333 v 41.33334 41.33333 h 41.33333 41.33334 v -41.33333 -41.33334 h 41.33333 41.33334 v -82.66667 -82.66667 h -41.33334 -41.33333 v -41.33333 -41.33333 h 41.33333 41.33334 v 41.33333 41.33333 h 82.66667 82.66667 V 289.33334 248.00001 H 950.66669 909.33336 V 165.33334 82.666669 h 82.66667 82.66667 V 124 165.33334 H 1116 h 41.3334 v 41.33333 41.33334 H 1198.6667 1240 v 82.66666 82.66667 h -82.6666 -82.6667 v -41.33333 -41.33334 h -41.3333 -41.33337 v 41.33334 41.33333 h -41.33334 -41.33333 v 41.33334 41.33333 h -41.33334 -41.33333 v 41.33334 41.33333 h -41.33334 -41.33333 v 41.33334 41.33333 h -41.33334 -41.33333 v 124 124.00001 h -41.33333 -41.33334 v -41.33334 -41.33333 h -41.33333 -41.33334 v -41.33334 -41.33333 h -41.33333 -41.33334 v -41.33334 -41.33333 h -41.33333 -41.33334 v 82.66667 82.66667 h -41.33333 -41.33333 v 41.33333 41.33334 h 82.66666 82.66667 v 41.33333 41.33334 h -41.33333 -41.33334 v 41.33337 41.3333 H 289.33334 248.00001 V 1116 1157.3334 Z M 620.00002,661.33335 h 41.33333 v -41.33333 -41.33334 h -41.33333 -41.33334 v 41.33334 41.33333 z m 0,496.00005 H 578.66668 V 1116 1074.6667 h 41.33334 41.33333 v -41.3333 -41.33337 h 41.33333 41.33334 v 41.33337 41.3333 H 702.66668 661.33335 V 1116 v 41.3334 z m 248,-248.00004 h -41.33333 v -82.66667 -82.66667 h 41.33333 41.33334 v 82.66667 82.66667 z M 1033.3334,661.33335 h -41.33337 v -82.66667 -82.66667 h 41.33337 41.3333 v 82.66667 82.66667 z"
         id="path601" />
      <path
         style="display:inline;fill:#514f47;stroke-width:1.33333"
         d="M 206.66667,1157.3334 H 165.33334 V 992.00003 826.66669 h 41.33333 41.33334 v -82.66667 -82.66667 h 41.33333 41.33333 v -124 -124.00001 h 41.33334 41.33333 v -41.33333 -41.33334 h 82.66667 82.66667 v 41.33334 41.33333 h -41.33333 -41.33334 v 41.33334 41.33333 h -41.33333 -41.33334 v 82.66667 82.66667 h 41.33334 41.33333 v -41.33333 -41.33334 h 41.33334 41.33333 v -41.33333 -41.33334 h 41.33334 41.33333 v 41.33334 41.33333 h -41.33333 -41.33334 v 82.66667 82.66667 h 41.33334 41.33333 v 82.66667 82.66667 h -41.33333 -41.33334 v -82.66667 -82.66667 h -82.66667 -82.66667 v -41.33334 -41.33333 h -41.33333 -41.33334 v 82.66667 82.66667 h -41.33333 -41.33333 v 41.33333 41.33334 h 82.66666 82.66667 v 41.33333 41.33334 h -41.33333 -41.33334 v 41.33337 41.3333 H 289.33334 248.00001 V 1116 v 41.3334 z m 413.33335,0 H 578.66668 V 1116 1074.6667 h 41.33334 41.33333 v -41.3333 -41.33337 h 41.33333 41.33334 v 41.33337 41.3333 H 702.66668 661.33335 V 1116 v 41.3334 z m 248,-248.00004 h -41.33333 v -82.66667 -82.66667 h 41.33333 41.33334 v 82.66667 82.66667 z M 1033.3334,661.33335 h -41.33337 v -82.66667 -82.66667 h 41.33337 41.3333 v 82.66667 82.66667 z M 868.00002,413.33334 h -41.33333 v -41.33333 -41.33334 h -41.33334 -41.33333 v -41.33333 -41.33333 h 41.33333 41.33334 v 41.33333 41.33333 h 41.33333 41.33334 v 41.33334 41.33333 z m 289.33338,0 h -82.6667 v -41.33333 -41.33334 h -41.3333 -41.33337 V 289.33334 248.00001 H 950.66669 909.33336 V 165.33334 82.666669 h 82.66667 82.66667 V 124 165.33334 H 1116 h 41.3334 v 41.33333 41.33334 H 1198.6667 1240 v 82.66666 82.66667 z"
         id="path599" />
      <path
         style="display:inline;fill:#473030;stroke-width:1.33333"
         d="M 620.00002,1157.3334 H 578.66668 V 1116 1074.6667 h 41.33334 41.33333 v -41.3333 -41.33337 h 41.33333 41.33334 v 41.33337 41.3333 H 702.66668 661.33335 V 1116 1157.3334 Z M 289.33334,992.00003 h -41.33333 v -41.33334 -41.33333 h 41.33333 41.33333 v 41.33333 41.33334 z m 330.66668,-82.66667 h -41.33334 v -82.66667 -82.66667 h -82.66667 -82.66667 v -41.33334 -41.33333 h 82.66667 82.66667 v 41.33333 41.33334 h 41.33334 41.33333 v 82.66667 82.66667 z m 248,0 h -41.33333 v -82.66667 -82.66667 h 41.33333 41.33334 v 82.66667 82.66667 z M 1033.3334,661.33335 h -41.33337 v -82.66667 -82.66667 h 41.33337 41.3333 v 82.66667 82.66667 z M 372.00001,578.66668 h -41.33334 v -82.66667 -82.66667 h 41.33334 41.33333 v -41.33333 -41.33334 h 82.66667 82.66667 v 41.33334 41.33333 h -82.66667 -82.66667 v 82.66667 82.66667 z M 1157.3334,413.33334 h -82.6667 V 330.66667 248.00001 H 992.00003 909.33336 V 165.33334 82.666669 h 82.66667 82.66667 V 124 165.33334 H 1116 h 41.3334 v 41.33333 41.33334 H 1198.6667 1240 v 82.66666 82.66667 z M 785.33335,330.66667 h -41.33333 v -41.33333 -41.33333 h 41.33333 41.33334 v 41.33333 41.33333 z"
         id="path597" />
      <path
         style="display:inline;fill:#3d3832;stroke-width:1.33333"
         d="M 620.00002,1157.3334 H 578.66668 V 1116 1074.6667 h 41.33334 41.33333 v -41.3333 -41.33337 h 41.33333 41.33334 v 41.33337 41.3333 H 702.66668 661.33335 V 1116 1157.3334 Z M 289.33334,992.00003 h -41.33333 v -41.33334 -41.33333 h 41.33333 41.33333 v 41.33333 41.33334 z m 330.66668,-82.66667 h -41.33334 v -41.33334 -41.33333 h 41.33334 41.33333 v 41.33333 41.33334 z m 248,0 h -41.33333 v -82.66667 -82.66667 h 41.33333 41.33334 v 82.66667 82.66667 z M 454.66668,744.00002 h -41.33334 v -41.33334 -41.33333 h 41.33334 41.33333 v 41.33333 41.33334 z m 578.66672,-82.66667 h -41.33337 v -82.66667 -82.66667 h 41.33337 41.3333 v 82.66667 82.66667 z M 372.00001,578.66668 h -41.33334 v -82.66667 -82.66667 h 41.33334 41.33333 v -41.33333 -41.33334 h 82.66667 82.66667 v 41.33334 41.33333 h -82.66667 -82.66667 v 82.66667 82.66667 z M 1157.3334,413.33334 h -82.6667 V 330.66667 248.00001 H 992.00003 909.33336 V 165.33334 82.666669 h 82.66667 82.66667 V 124 165.33334 H 1116 h 41.3334 v 41.33333 41.33334 H 1198.6667 1240 v 82.66666 82.66667 z M 785.33335,330.66667 h -41.33333 v -41.33333 -41.33333 h 41.33333 41.33334 v 41.33333 41.33333 z"
         id="path595" />
      <path
         style="fill:#2d272b;stroke-width:1.33333"
         d="M 620.00002,1157.3334 H 578.66668 V 1116 1074.6667 h 41.33334 41.33333 v -41.3333 -41.33337 h 41.33333 41.33334 v 41.33337 41.3333 H 702.66668 661.33335 V 1116 1157.3334 Z M 289.33334,992.00003 h -41.33333 v -41.33334 -41.33333 h 41.33333 41.33333 v 41.33333 41.33334 z m 578.66668,-82.66667 h -41.33333 v -82.66667 -82.66667 h 41.33333 41.33334 v 82.66667 82.66667 z M 1033.3334,661.33335 h -41.33337 v -82.66667 -82.66667 h 41.33337 41.3333 v 82.66667 82.66667 z m 124,-248.00001 h -82.6667 V 372.00001 330.66667 H 1116 1157.3334 V 289.33334 248.00001 H 1116 1074.6667 v -41.33334 -41.33333 h -41.3333 -41.33337 v 41.33333 41.33334 H 950.66669 909.33336 V 165.33334 82.666669 h 82.66667 82.66667 V 124 165.33334 H 1116 h 41.3334 v 41.33333 41.33334 H 1198.6667 1240 v 82.66666 82.66667 z"
         id="path593" />
      <path
         style="fill:#180f04;stroke-width:1.33333"
         d="m 289.33334,992.00003 h -41.33333 v -41.33334 -41.33333 h 41.33333 41.33333 v 41.33333 41.33334 z M 1157.3334,413.33334 h -82.6667 V 372.00001 330.66667 H 1116 1157.3334 V 289.33334 248.00001 H 1116 1074.6667 V 206.66667 165.33334 H 992.00003 909.33336 V 124 82.666669 h 82.66667 82.66667 V 124 165.33334 H 1116 h 41.3334 v 41.33333 41.33334 H 1198.6667 1240 v 82.66666 82.66667 z"
         id="path591" />
    </g>
  </g>
</svg>
